/* XPM */
static char *_a70bf2b9f984033b769b44cae6cfb35XQ3hStAEUR6NK5M6[] = {
/* columns rows colors chars-per-pixel */
"32 32 154 2 ",
"   c None",
".  c #3C3343",
"X  c #473A49",
"o  c #483B4B",
"O  c #423F5C",
"+  c #463C50",
"@  c #732A43",
"#  c #743F5D",
"$  c #6C3B61",
"%  c #42405F",
"&  c #584455",
"*  c #60485A",
"=  c #424265",
"-  c #494464",
";  c #5A4C69",
":  c #444D78",
">  c #5B4F70",
",  c #655577",
"<  c #8E3A3F",
"1  c #983E35",
"2  c #9B4136",
"3  c #98403C",
"4  c #A64837",
"5  c #AC4B33",
"6  c #AA4F39",
"7  c #AE503C",
"8  c #A95A3E",
"9  c #B55C3C",
"0  c #B5603D",
"q  c #C55C36",
"w  c #C05C39",
"e  c #CC653C",
"r  c #C6643C",
"t  c #D26B3C",
"y  c #D3703F",
"u  c #8A3940",
"i  c #824758",
"p  c #8A4F59",
"a  c #984A54",
"s  c #89555F",
"d  c #9E5257",
"f  c #B45C4E",
"g  c #A75F59",
"h  c #AA6058",
"j  c #B46757",
"k  c #885862",
"l  c #915A60",
"z  c #9A6B69",
"x  c #AF7162",
"c  c #B27867",
"v  c #BB7F6B",
"b  c #C06C41",
"n  c #D16F40",
"m  c #CE7343",
"M  c #D47241",
"N  c #D77942",
"B  c #D97B44",
"V  c #C27354",
"C  c #D57B56",
"Z  c #D27B6E",
"A  c #BF9172",
"S  c #DD8346",
"D  c #DD854A",
"F  c #DA9150",
"G  c #E1864A",
"H  c #E48C4C",
"J  c #E18647",
"K  c #E4934C",
"L  c #EB954C",
"P  c #EB9B4C",
"I  c #E79D4E",
"U  c #EC9C50",
"Y  c #EEA24F",
"T  c #F4A74F",
"R  c #F4A84F",
"E  c #EFA151",
"W  c #F1A650",
"Q  c #F4AB52",
"!  c #F7B153",
"~  c #F8B453",
"^  c #FBBA54",
"/  c #C0836C",
"(  c #C78F6D",
")  c #D38560",
"_  c #C39474",
"`  c #CD9C77",
"'  c #DC997E",
"]  c #D3A179",
"[  c #475187",
"{  c #4F5488",
"}  c #4A599A",
"|  c #545B9C",
" . c #595898",
".. c #5E5995",
"X. c #60659E",
"o. c #4A5FAA",
"O. c #4A65AC",
"+. c #5560A2",
"@. c #4C6CBD",
"#. c #4B62B3",
"$. c #5F7BB2",
"%. c #696EA0",
"&. c #4C73C3",
"*. c #5B7EC6",
"=. c #5176C3",
"-. c #487ED1",
";. c #896E90",
":. c #5E85BC",
">. c #6983B3",
",. c #7987B9",
"<. c #4E82CD",
"1. c #4C8FDC",
"2. c #4B84D3",
"3. c #4D90DD",
"4. c #5898DF",
"5. c #6E95C1",
"6. c #7799C2",
"7. c #759DD4",
"8. c #7CA2C6",
"9. c #4B9BE7",
"0. c #4E9CE8",
"q. c #589CE4",
"w. c #519BE8",
"e. c #579DE5",
"r. c #50A0E9",
"t. c #59A6EC",
"y. c #5CA9ED",
"u. c #5BACF1",
"i. c #56A9F2",
"p. c #73AEE8",
"a. c #65B5F7",
"s. c #66B7F8",
"d. c #6BB7F5",
"f. c #73BCF5",
"g. c #7EC7FB",
"h. c #7DC8FD",
"j. c #91A0B8",
"k. c #C28083",
"l. c #E99B81",
"z. c #C5A39F",
"x. c #EBA78D",
"c. c #D6A7A7",
"v. c #D4AFA1",
"b. c #D6BCBB",
"n. c #94B3CD",
"m. c #97B9D1",
"M. c #93B5D0",
"N. c #A0BBD1",
"B. c #80B9ED",
"V. c #A7C5D5",
"C. c #81CBFD",
"Z. c #8BD4FF",
"A. c #92D5FF",
"S. c #93D8FF",
/* pixels */
"                    t e e r 9 8 8 8 8 8                         ",
"                    M M M M M M M M M M                         ",
"                e n B G D G G G G G G S n e     e e             ",
"                N S H L U U U U U U L H S N     B B             ",
"            e N P Y L L W ! ! ! ! W L L Y P N N P P B e         ",
"            n S Y Q E E ! ^ ^ ^ ^ ! E E Q Y S S P P B e         ",
"    e e e M B H L E Q ~ ^ ^ ^ ^ ^ ^ ~ Q U P Y P S N             ",
"    B N M N H H H K W ~ ^ ^ ! ! ^ ^ ~ W U E Q P N e             ",
"e N P P H H H H N N H W ~ ~ E E ~ ~ E U Q Q E H M e             ",
"e N P W E L D m r e S L R T L L R T L L T R P J y e             ",
"    N J W I b 6 4 9 B L L L L L L L L L L L L J y e             ",
"    e N K F V g l z _ ] ] ` _ A A _ ` ] ] ` _ ( ) C             ",
"        0 V ' z.,.5.M.V.V.m.8.5.5.8.m.V.V.m.8.j.v.l.j 2         ",
"        1 j x.b.7.w.d.C.Z.C.a.i.i.a.C.Z.C.d.w.7.b.x.j 2         ",
"        2 f l.c.,.-.w.s.C.Z.C.h.h.C.Z.C.s.w.-.,.c.l.f 2         ",
"        2 f Z k.;.%.>.6.n.N.N.N.N.N.N.n.6.>.%.;.k.Z f 2         ",
"            a d h j x c v / / / / / / v c x j h d a             ",
"            @ u 7 w q q q q q q q q q q q q w 7 u @             ",
"                < 1 4 5 5 5 5 5 5 5 5 5 5 4 3 <                 ",
"                $ # i p s k k k k k k s p i # $                 ",
"                |  ...X.$.:.:.:.:.:.:.$.X... .|                 ",
"                O.@.@.<.e.u.u.u.u.u.u.q.<.@.@.O.                ",
"            . = } &.2.q.f.g.g.g.g.g.C.f.q.2.&.} = .             ",
"            X - } &.1.y.C.S.S.S.S.Z.C.f.t.1.&.} - X             ",
"        . o & > | &.1.y.C.S.S.S.S.C.d.t.r.1.&.| > & o .         ",
"        . o * , +.&.1.t.f.C.Z.S.S.g.y.9.9.1.&.+., * o .         ",
"        . o * , +.&.1.r.t.d.C.S.S.C.y.9.0.3.&.+., * o .         ",
"        . o & ; { O.<.1.1.4.p.B.B.p.q.1.1.<.O.{ ; & o .         ",
"            o + O : O.&.&.=.*.*.*.*.=.&.&.O.: O + o             ",
"            . . . O [ } } } o.#.#.o.} } } [ O . . .             ",
"                    O % O =         = O % O                     ",
"                    . . . .         . . . .                     "
};
