/* XPM */
static char *blue_up1691656617[] = {
/* columns rows colors chars-per-pixel */
"100 100 2 1 ",
"  c black",
". c #0098FF",
/* pixels */
"                                                                                                    ",
" .................................................................................................. ",
" .................................................................................................. ",
" .................................................................................................. ",
" .................................................................................................. ",
" .................................................................................................. ",
" .................................................................................................. ",
" .................................................................................................. ",
" .................................................................................................. ",
" .................................................................................................. ",
" .................................................................................................. ",
" .................................................................................................. ",
" .................................................................................................. ",
" .................................................................................................. ",
" .................................................................................................. ",
" ................................................  ................................................ ",
" ...............................................    ............................................... ",
" ..............................................      .............................................. ",
" .............................................        ............................................. ",
" ............................................          ............................................ ",
" ...........................................            ........................................... ",
" ..........................................              .......................................... ",
" .........................................     .    .     ......................................... ",
" ........................................     ..    ..     ........................................ ",
" .......................................     ...    ...     ....................................... ",
" ......................................     ....    ....     ...................................... ",
" .....................................     .....    .....     ..................................... ",
" ....................................     ......    ......     .................................... ",
" ...................................     .......    .......     ................................... ",
" ..................................     ........    ........     .................................. ",
" .................................     .........    .........     ................................. ",
" ................................     ..........    ..........     ................................ ",
" ...............................     ...........    ...........     ............................... ",
" ..............................     ............    ............     .............................. ",
" .............................     .............    .............     ............................. ",
" ............................     ..............    ..............     ............................ ",
" ...........................     ...............    ...............     ........................... ",
" ..........................     ................    ................     .......................... ",
" .........................     .................    .................     ......................... ",
" ........................     ..................    ..................     ........................ ",
" .......................     ...................    ...................     ....................... ",
" ......................     ....................    ....................     ...................... ",
" .....................     .....................    .....................     ..................... ",
" ....................     ......................    ......................     .................... ",
" ...................     .......................    .......................     ................... ",
" ..................     ........................    ........................     .................. ",
" .................     .........................    .........................     ................. ",
" ................     ..........................    ..........................     ................ ",
" ...............     ...........................    ...........................     ............... ",
" ..............     ............................    ............................     .............. ",
" ...............   .............................    .............................   ............... ",
" ................ ..............................    .............................. ................ ",
" ...............................................    ............................................... ",
" ...............................................    ............................................... ",
" ...............................................    ............................................... ",
" ...............................................    ............................................... ",
" ...............................................    ............................................... ",
" ...............................................    ............................................... ",
" ...............................................    ............................................... ",
" ...............................................    ............................................... ",
" ...............................................    ............................................... ",
" ...............................................    ............................................... ",
" ...............................................    ............................................... ",
" ...............................................    ............................................... ",
" ...............................................    ............................................... ",
" ...............................................    ............................................... ",
" ...............................................    ............................................... ",
" ...............................................    ............................................... ",
" ...............................................    ............................................... ",
" ...............................................    ............................................... ",
" ...............................................    ............................................... ",
" ...............................................    ............................................... ",
" ...............................................    ............................................... ",
" ...............................................    ............................................... ",
" ...............................................    ............................................... ",
" ...............................................    ............................................... ",
" ...............................................    ............................................... ",
" ...............................................    ............................................... ",
" ...............................................    ............................................... ",
" ...............................................    ............................................... ",
" ...............................................    ............................................... ",
" .................................................................................................. ",
" .................................................................................................. ",
" .................................................................................................. ",
" .................................................................................................. ",
" .................................................................................................. ",
" .................................................................................................. ",
" .................................................................................................. ",
" .................................................................................................. ",
" .................................................................................................. ",
" .................................................................................................. ",
" .................................................................................................. ",
" .................................................................................................. ",
" .................................................................................................. ",
" .................................................................................................. ",
" .................................................................................................. ",
" .................................................................................................. ",
" .................................................................................................. ",
" .................................................................................................. ",
"                                                                                                    "
};
