/* XPM */
static char *bce4e91ab5604501f9de98a6b3ce70447ZD19CP8txTNP4rt[] = {
/* columns rows colors chars-per-pixel */
"32 32 172 2 ",
"   c None",
".  c #362F41",
"X  c #382F41",
"o  c #3B3344",
"O  c #443345",
"+  c #463A4B",
"@  c #4D3B4A",
"#  c #443E5D",
"$  c #612B41",
"%  c #722840",
"&  c #46415E",
"*  c #534253",
"=  c #55435C",
"-  c #5C4659",
";  c #5B4C5A",
":  c #5D5C5C",
">  c #634B55",
",  c #774C5A",
"<  c #6B5057",
"1  c #5F4F61",
"2  c #695F6E",
"3  c #7C5A65",
"4  c #765767",
"5  c #57627E",
"6  c #63636D",
"7  c #69606F",
"8  c #6B6471",
"9  c #776572",
"0  c #9B4136",
"q  c #B05239",
"w  c #BE633E",
"e  c #C05E3B",
"r  c #CC653C",
"t  c #D26B3C",
"y  c #D5713E",
"u  c #D9753E",
"i  c #DD783B",
"p  c #814657",
"a  c #964954",
"s  c #954754",
"d  c #9A5B55",
"f  c #B35B4E",
"g  c #BC5F48",
"h  c #AE5E5F",
"j  c #B65F50",
"k  c #AA645B",
"l  c #BA7159",
"z  c #865C6A",
"x  c #915960",
"c  c #995E64",
"v  c #8A636E",
"b  c #9A6968",
"n  c #AE6B66",
"m  c #B46567",
"M  c #AC7265",
"N  c #B87566",
"B  c #B67D75",
"V  c #D16F40",
"C  c #D47341",
"Z  c #D77942",
"A  c #D97C44",
"S  c #D67446",
"D  c #C77B5A",
"F  c #DD7B59",
"G  c #C76440",
"H  c #CC7972",
"J  c #52876B",
"K  c #DC8045",
"L  c #DE8448",
"P  c #E28846",
"I  c #E18649",
"U  c #E38C4B",
"Y  c #E38748",
"T  c #E6914D",
"R  c #EB9B4D",
"E  c #E8944F",
"W  c #EC9B50",
"Q  c #E29A52",
"!  c #F09F4A",
"~  c #F0A44E",
"^  c #EFA151",
"/  c #F1A551",
"(  c #F4AB52",
")  c #F9B454",
"_  c #FBB954",
"`  c #EFA24F",
"'  c #C18672",
"]  c #DD8572",
"[  c #C99674",
"{  c #E68663",
"}  c #E9927C",
"|  c #D4A37A",
" . c #454F86",
".. c #6C6881",
"X. c #6B6494",
"o. c #706B82",
"O. c #4D6CAD",
"+. c #6A75AA",
"@. c #B87C83",
"#. c #7EAA82",
"$. c #698CBD",
"%. c #668DBF",
"&. c #7882BB",
"*. c #5A96D7",
"=. c #678AC3",
"-. c #6A95C7",
";. c #7397C6",
":. c #6F9CD1",
">. c #779CD1",
",. c #78A6D4",
"<. c #489FEF",
"1. c #56A9F1",
"2. c #56AAF3",
"3. c #78BBED",
"4. c #68B8F8",
"5. c #72B0E8",
"6. c #7CC9FF",
"7. c #998F92",
"8. c #969191",
"9. c #8E8493",
"0. c #A19899",
"q. c #B7969C",
"w. c #8C95B4",
"e. c #919DB9",
"r. c #8DACBB",
"t. c #9AAEB6",
"y. c #9DB0B3",
"u. c #AFAAA8",
"i. c #B3AEB6",
"p. c #A3B4B1",
"a. c #B5B9BB",
"s. c #C68780",
"d. c #CA9584",
"f. c #CA9A97",
"g. c #D1978E",
"h. c #EA9B89",
"j. c #EA9982",
"k. c #C6AE93",
"l. c #C7B095",
"z. c #D8BD9C",
"x. c #EEA68D",
"c. c #FDA687",
"v. c #FCB79B",
"b. c #D8A4A3",
"n. c #C4BEB9",
"m. c #D6B7B7",
"M. c #E8B5AC",
"N. c #FCB8A0",
"B. c #E0BCB0",
"V. c #D6C2A1",
"C. c #FBC9AC",
"Z. c #FFCDB2",
"A. c #96B6CF",
"S. c #87B3D8",
"D. c #B1B0C3",
"F. c #83B1E0",
"G. c #A8C6D6",
"H. c #9DC5E5",
"J. c #82CDFF",
"K. c #8CD5FF",
"L. c #9AD5FD",
"P. c #A9C7E3",
"I. c #A9D2ED",
"U. c #BADDE7",
"Y. c #ABE3FF",
"T. c #CBCDCE",
"R. c #DCC7C2",
"E. c #D1D0D1",
"W. c #E1CDC5",
"Q. c #ECD3CF",
"!. c #D8F1FC",
"~. c #E7FAFF",
/* pixels */
"                                                                ",
"                                                                ",
"                        r r r r r r r r r r                     ",
"                        Z Z C C C C Z Z C C                     ",
"            r r     r Z R R U L L U R R U A V r                 ",
"            Z Z     Z P ~ ( W E R / ) ) / E A V                 ",
"        r Z R R Z Z R ~ W W E R / ) _ _ ) / E A V r     r r     ",
"        r Z R R A K ` / E I U R / ) _ _ ) ( ^ E A V     Z Z     ",
"            Z A L U R E A Z U E W / ) ) ^ W ( / E A V Z R R Z r ",
"            r t Z L U I Z C K I I U R ~ R ^ ( ( W U Z A R R Z r ",
"            t r q w K U Y A u y y y u P ~ ( ^ W E U U L A Z     ",
"            k k x b ' | | [ N M M M M N Q ! U I L I U L V r     ",
"            X.X.+.;.A.G.G.A.;.$.$.$.%.9.D i u y y C C C         ",
"            +.=.*.1.4.J.K.J.4.1.1.2.2.:.9.M M N D S G e         ",
"        0 k f.D.5.<.1.4.J.K.J.6.6.6.6.3.:.%.=.w.g.{ g q         ",
"        0 j x.m.e.=.;.>.,.S.H.P.P.P.S.,.,.:.-.w.b.} f 0         ",
"        0 j j.x.' B f.q...o.q.M.M.q.o...q.f.B ' h.} f 0         ",
"        0 f H ] F { c.d.: : d.v.v.d.: : d.c.{ F ] H f 0         ",
"            a h ] c.v.l.J J k.C.C.k.J J l.v.c.] h a             ",
"            % s H h.N.z.#.#.V.Z.Z.V.#.#.z.N.h.H s %             ",
"                a m h.v.z.V.C.Z.Z.C.V.z.v.h.m a                 ",
"                $ p @.b.m.R.R.W.W.R.R.m.b.@.p $                 ",
"            o o O = X.&.>.F.H.I.I.H.F.>.&.X.= O o o             ",
"            + + + &  .O.*.3.L.Y.Y.L.3.*.O. .& + + +             ",
"        o + * - - = # 5 r.U.!.~.~.!.U.r.5 # = - - * + o         ",
"        o * 3 v 4 - O ; 8.n.W.Q.Q.W.n.8.; O - 4 v 3 * o         ",
"        o > B s.v - O @ , c n N N n c , @ O - v s.B > o         ",
"        o < B B 3 1 7 9 z x d d d d x z 9 7 1 3 B B < o         ",
"            < > @ 2 i.E.n.u.0.7.7.0.u.n.E.i.2 @ > <             ",
"            o . . 8 a.T.a.p.y.t.t.y.p.a.T.a.8 . . o             ",
"                    8 8 6 6         6 6 8 8                     ",
"                    X X . .         . . X X                     "
};
