/* XPM */
static char *green1691656618[] = {
/* columns rows colors chars-per-pixel */
"100 100 2 1 ",
"  c black",
". c #2EFF00",
/* pixels */
"                                                                                                    ",
" .................................................................................................. ",
" .................................................................................................. ",
" .................................................................................................. ",
" .................................................................................................. ",
" .................................................................................................. ",
" .................................................................................................. ",
" .................................................................................................. ",
" .................................................................................................. ",
" .................................................................................................. ",
" .................................................................................................. ",
" .................................................................................................. ",
" .................................................................................................. ",
" .................................................................................................. ",
" .................................................................................................. ",
" .................................................................................................. ",
" .................................................................................................. ",
" .................................................................................................. ",
" .................................................................................................. ",
" .................................................................................................. ",
" .................................................................................................. ",
" .................................................................................................. ",
" .................................................................................................. ",
" .................................................................................................. ",
" .................................................................................................. ",
" .................................................................................................. ",
" .................................................................................................. ",
" .................................................................................................. ",
" .................................................................................................. ",
" .................................................................................................. ",
" .................................................................................................. ",
" .................................................................................................. ",
" .................................................................................................. ",
" .................................................................................................. ",
" .................................................................................................. ",
" .................................................................................................. ",
" .................................................................................................. ",
" .................................................................................................. ",
" .................................................................................................. ",
" .................................................................................................. ",
" .................................................................................................. ",
" .................................................................................................. ",
" .................................................................................................. ",
" .................................................................................................. ",
" .................................................................................................. ",
" .................................................................................................. ",
" .................................................................................................. ",
" .................................................................................................. ",
" .................................................................................................. ",
" .................................................................................................. ",
" .................................................................................................. ",
" .................................................................................................. ",
" .................................................................................................. ",
" .................................................................................................. ",
" .................................................................................................. ",
" .................................................................................................. ",
" .................................................................................................. ",
" .................................................................................................. ",
" .................................................................................................. ",
" .................................................................................................. ",
" .................................................................................................. ",
" .................................................................................................. ",
" .................................................................................................. ",
" .................................................................................................. ",
" .................................................................................................. ",
" .................................................................................................. ",
" .................................................................................................. ",
" .................................................................................................. ",
" .................................................................................................. ",
" .................................................................................................. ",
" .................................................................................................. ",
" .................................................................................................. ",
" .................................................................................................. ",
" .................................................................................................. ",
" .................................................................................................. ",
" .................................................................................................. ",
" .................................................................................................. ",
" .................................................................................................. ",
" .................................................................................................. ",
" .................................................................................................. ",
" .................................................................................................. ",
" .................................................................................................. ",
" .................................................................................................. ",
" .................................................................................................. ",
" .................................................................................................. ",
" .................................................................................................. ",
" .................................................................................................. ",
" .................................................................................................. ",
" .................................................................................................. ",
" .................................................................................................. ",
" .................................................................................................. ",
" .................................................................................................. ",
" .................................................................................................. ",
" .................................................................................................. ",
" .................................................................................................. ",
" .................................................................................................. ",
" .................................................................................................. ",
" .................................................................................................. ",
" .................................................................................................. ",
"                                                                                                    "
};
