/* XPM */
static char *_01cbffaa182469bfb2623a558b3aa62CF2QvFiOpC6Uh65p[] = {
/* columns rows colors chars-per-pixel */
"32 32 188 2 ",
"   c None",
".  c #382F41",
"X  c #3B3245",
"o  c #3D3A5B",
"O  c #463849",
"+  c #513C49",
"@  c #6D354A",
"#  c #5F434E",
"$  c #4E4958",
"%  c #5C4659",
"&  c #5B4B5C",
"*  c #544E5C",
"=  c #57505F",
"-  c #7F424F",
";  c #624952",
":  c #63505D",
">  c #7E5659",
",  c #5E5964",
"<  c #595562",
"1  c #535775",
"2  c #655B65",
"3  c #7C5964",
"4  c #765767",
"5  c #5C6568",
"6  c #756269",
"7  c #616472",
"8  c #993B2F",
"9  c #9D4235",
"0  c #9A423C",
"q  c #AB4B35",
"w  c #A84B39",
"e  c #B04E35",
"r  c #AD543C",
"t  c #B95738",
"y  c #CC653C",
"u  c #CE693D",
"i  c #C4623C",
"p  c #D06A3C",
"a  c #D4733F",
"s  c #8F4449",
"d  c #9F4C4E",
"f  c #86514F",
"g  c #854A58",
"h  c #99575A",
"j  c #964A56",
"k  c #A04C4D",
"l  c #AF5547",
"z  c #B35641",
"x  c #B45E4A",
"c  c #A25E54",
"v  c #B05C51",
"b  c #B46145",
"n  c #AC665E",
"m  c #B46152",
"M  c #895761",
"N  c #8A636E",
"B  c #9D6A6C",
"V  c #867779",
"C  c #A06C6D",
"Z  c #B36E68",
"A  c #B37766",
"S  c #B4746B",
"D  c #B57B69",
"F  c #B87E77",
"G  c #C46847",
"H  c #D16E40",
"J  c #CC724C",
"K  c #CE7443",
"L  c #D37342",
"P  c #D77942",
"I  c #D97B43",
"U  c #D57F49",
"Y  c #DA7740",
"T  c #C06C57",
"R  c #CD7552",
"E  c #D27A59",
"W  c #C8736C",
"Q  c #518A6F",
"!  c #538C71",
"~  c #79A37C",
"^  c #BC8167",
"/  c #B88776",
"(  c #DD8345",
")  c #DF8846",
"_  c #DF8449",
"`  c #C4805E",
"'  c #E28A47",
"]  c #E38749",
"[  c #E48C4B",
"{  c #E88F4C",
"}  c #E7914E",
"|  c #E9964F",
" . c #EA9A4C",
".. c #E18B57",
"X. c #EC9D50",
"o. c #EFA34F",
"O. c #F0A54F",
"+. c #F1A84F",
"@. c #EFA151",
"#. c #F4AB52",
"$. c #F0A351",
"%. c #F8B453",
"&. c #FCBA54",
"*. c #DB8068",
"=. c #C08767",
"-. c #E5946F",
";. c #E28B67",
":. c #E8A07F",
">. c #465496",
",. c #5C5793",
"<. c #605A93",
"1. c #5F6880",
"2. c #4F609F",
"3. c #767B86",
"4. c #796E93",
"5. c #5B70AE",
"6. c #4762B7",
"7. c #4C63B2",
"8. c #4C6FBE",
"9. c #4B67B8",
"0. c #4D71BF",
"q. c #5C78B1",
"w. c #6F74A4",
"e. c #717AA5",
"r. c #6279B7",
"t. c #5177C4",
"y. c #5B7EC6",
"u. c #577ECA",
"i. c #4C76C7",
"p. c #84758A",
"a. c #7EAB83",
"s. c #5A83BD",
"d. c #7B87A2",
"f. c #6F91BA",
"g. c #6B85B4",
"h. c #5B91CF",
"j. c #4C85D2",
"k. c #6C96C4",
"l. c #638FD4",
"z. c #6591D5",
"x. c #7CA8D7",
"c. c #589BE3",
"v. c #59A5E9",
"b. c #76ADE7",
"n. c #75B2EC",
"m. c #6FB2F1",
"M. c #81828B",
"N. c #89959E",
"B. c #8A959A",
"V. c #979797",
"C. c #838C94",
"Z. c #A09595",
"A. c #9E9DAC",
"S. c #8DA1B9",
"D. c #9EB2B9",
"F. c #95ABB5",
"G. c #B4BBBC",
"H. c #CD9684",
"J. c #DB9686",
"K. c #DE9F91",
"L. c #C68780",
"P. c #E49583",
"I. c #E99D8C",
"U. c #C4A88B",
"Y. c #CAAE9D",
"T. c #C5B79C",
"R. c #EBA688",
"E. c #E8AB97",
"W. c #EFB097",
"Q. c #F7BA9B",
"!. c #F6A68A",
"~. c #C5BCA8",
"^. c #CAA7A5",
"/. c #FDBDA4",
"(. c #D7C3A2",
"). c #EBC2AC",
"_. c #FFC6AB",
"`. c #FFC9AD",
"'. c #F8C7A9",
"]. c #FFCBB0",
"[. c #EDD1BF",
"{. c #8FA4C3",
"}. c #90A6C5",
"|. c #91B8DC",
" X c #A5BEC9",
".X c #8ABDE5",
"XX c #DFC9C3",
"oX c #C2D3D3",
/* pixels */
"                                                                ",
"                                                                ",
"                        p u u u u u u u                         ",
"                        L L L L P I I P                         ",
"                u y y H I _ _ [  .O.O. .P y     u u             ",
"                P I I ( } X.} | #.%.%.o.) P     I I             ",
"            y P  .O.O.+.#.#.| } | X.X.X.O. .L P  . .I u         ",
"            P ) o.%.&.&.&.%.$.| } { { | #.o.) )  . .I u         ",
"        u P  .o. .@.%.&.&.&.%.#.| { { } | X.O. .) P             ",
"        y P  .#.@.X.#.%.&.%.#.o.| } } } { | #.o.( H             ",
"        y L [ @.#.#.X.@.%.#.' I [ } } } { } X.| [ I L u         ",
"        P ( [ | #.#.@. .o. .I P [ { [ [ [ [ ] [ { ] L u         ",
"    u P  .o.| } | @.#.o.) I _ [ } [ I I ' ] Y I ' [ L u         ",
"    u P  .O.X.| [ [ o. .a u P U U K i G =./ D A ^ ` J y         ",
"        P ' O.o.I a I I p i t r r r q h d.k.k.g.w.4.            ",
"        y P  .X...R x b R R z w l x m B e.h.v.c.i.6.            ",
"            I ..R.H.> > H.:.J G *.P.E.H.C p.x.m.u.6.            ",
"            t E Q.Y.5 5 Y.Q.-.;.!./._.R.v h A.}.w.<.            ",
"            w T W.~.! Q T._.Q.Q._._./.P.d s Z A h g             ",
"            9 m J.U.~ a.(.`.`./.E.K.J.W d 0 t t q 9             ",
"                m D U.(.'._./.I.Z h j k z t e q                 ",
"                8 n ^.XX[.).K.S - @ g B D A h g                 ",
"                    x.|.oX~.V # O : V.G. X{.w.,.                ",
"                    s.f.F.B.< X O , V. X.Xb.l.y.                ",
"                    M 3 2 , & % % & 2 1.q.z.b.b.y.7.            ",
"                    c f + + 3 N 4 % O o >.u.n.n.y.7.            ",
"                    Z.V $ ; F L.N % O o >.t.c.c.t.7.            ",
"                    D.N.7 6 / F 3 % = 1 2.8.j.j.0.7.            ",
"                        N.M.6 ; + = 3.d.5.9.8.0.                ",
"                        N.3.$ . X * C.S.r.7.7.7.                ",
"                        < $ O X X O                             ",
"                        X X X X X X                             "
};
