/* XPM */
static char *_0a5fbb0b78d49b7979e642910c505222KdRxKo10QDjYVjH[] = {
/* columns rows colors chars-per-pixel */
"32 32 192 2 ",
"   c None",
".  c #382F41",
"X  c #3B3245",
"o  c #3D3A5B",
"O  c #463849",
"+  c #513C49",
"@  c #6D354A",
"#  c #5F434E",
"$  c #4E4958",
"%  c #5C4659",
"&  c #5B4B5C",
"*  c #544E5C",
"=  c #57505F",
"-  c #7F424F",
";  c #624952",
":  c #63505D",
">  c #5B5763",
",  c #535775",
"<  c #655B65",
"1  c #7C5964",
"2  c #765767",
"3  c #5F6464",
"4  c #756269",
"5  c #616472",
"6  c #993B2F",
"7  c #9D4235",
"8  c #9A423D",
"9  c #AA4A35",
"0  c #B14F36",
"q  c #B85539",
"w  c #BE5D3A",
"e  c #C05936",
"r  c #CC663C",
"t  c #CE683C",
"y  c #D36D3C",
"u  c #D8763F",
"i  c #9F4C4E",
"p  c #86514F",
"a  c #874B58",
"s  c #8C585F",
"d  c #96545B",
"f  c #98575A",
"g  c #90454F",
"h  c #A04C4D",
"j  c #B55744",
"k  c #A25E54",
"l  c #B15D51",
"z  c #BA604C",
"x  c #A9645C",
"c  c #B86756",
"v  c #B46153",
"b  c #BB775D",
"n  c #895761",
"m  c #8A636E",
"M  c #986567",
"N  c #867779",
"B  c #A46A67",
"V  c #B57765",
"C  c #B67869",
"Z  c #B87E77",
"A  c #B46C6E",
"S  c #D26E40",
"D  c #D37241",
"F  c #DA7740",
"G  c #D77942",
"H  c #D97B42",
"J  c #CA7149",
"K  c #C8736C",
"L  c #548B6D",
"P  c #79A37C",
"I  c #BE836D",
"U  c #BE8165",
"Y  c #B68379",
"T  c #BC8D74",
"R  c #DD8345",
"E  c #DF8846",
"W  c #D4804E",
"Q  c #C4805E",
"!  c #DD8D56",
"~  c #E28547",
"^  c #E68947",
"/  c #E28749",
"(  c #E58D4C",
")  c #E6914D",
"_  c #E9924D",
"`  c #EA9B4C",
"'  c #EC9C50",
"]  c #EFA34F",
"[  c #F0A54F",
"{  c #F3A952",
"}  c #F8B354",
"|  c #C18D71",
" . c #C99A78",
".. c #D28C6C",
"X. c #E7916F",
"o. c #CDA07B",
"O. c #465496",
"+. c #5C5793",
"@. c #615B94",
"#. c #5E6581",
"$. c #4F609F",
"%. c #786984",
"&. c #767B86",
"*. c #787D9E",
"=. c #796E93",
"-. c #5B70AE",
";. c #4B63B3",
":. c #4A6ABB",
">. c #4D71BF",
",. c #5C78B1",
"<. c #636AA0",
"1. c #6E71A3",
"2. c #737AA3",
"3. c #6279B7",
"4. c #4873C6",
"5. c #5177C4",
"6. c #5B7EC6",
"7. c #597EC8",
"8. c #8F7A89",
"9. c #7EAB83",
"0. c #5A83BD",
"q. c #6C85B5",
"w. c #6F91BA",
"e. c #7987A1",
"r. c #5289C7",
"t. c #568CCC",
"y. c #598ECB",
"u. c #4C85D2",
"i. c #698EC1",
"p. c #6B94C4",
"a. c #6194CC",
"s. c #7C9FC5",
"d. c #638FD4",
"f. c #6A9DD4",
"g. c #6591D5",
"h. c #7DA3C8",
"j. c #76A1D3",
"k. c #488FE0",
"l. c #4A99E7",
"z. c #579CE3",
"x. c #53A5EF",
"c. c #56A9F3",
"v. c #57A9F3",
"b. c #76ADE7",
"n. c #75B2EC",
"m. c #6EBDFC",
"M. c #70BEFA",
"N. c #7CCBFF",
"B. c #81828B",
"V. c #848999",
"C. c #89959E",
"Z. c #8A959A",
"A. c #979797",
"S. c #A09595",
"D. c #808EB2",
"F. c #8DA1B9",
"G. c #9EB2B9",
"H. c #95ABB5",
"J. c #ADA3AC",
"K. c #B2B6B7",
"L. c #D99786",
"P. c #DE9F91",
"I. c #C68780",
"U. c #E59988",
"Y. c #C4A88B",
"T. c #CCA99A",
"R. c #C9B99C",
"E. c #E9A58E",
"W. c #EBAE97",
"Q. c #F9BA99",
"!. c #F7A689",
"~. c #CBABA7",
"^. c #C0BCAF",
"/. c #FDBDA4",
"(. c #D7C3A2",
"). c #FFC6AB",
"_. c #FFC9AC",
"`. c #F8C7A9",
"'. c #FFCBB0",
"]. c #EDD1BF",
"[. c #EBC2AC",
"{. c #89A5C7",
"}. c #94B1CD",
"|. c #97B9D5",
" X c #8CB8DE",
".X c #A5BEC9",
"XX c #A2BED3",
"oX c #8ABDE5",
"OX c #A4C5D8",
"+X c #82C5F6",
"@X c #DFC9C3",
"#X c #C2D3D3",
/* pixels */
"                                                                ",
"                                                                ",
"                        r r r r r t r r                         ",
"                        G H H G G D D D                         ",
"            r r     r G ` [ [ ` ( / / R S r r r                 ",
"            H H     G E ] } } { ' ) ) ( R H H G                 ",
"        r H ` ` G G ` [ ' ' ' ` ) ) ) _ ] [ [ ` G r             ",
"        r H ` ` R E [ { ` ( ( ( ) ) ( ` { } } ] E G             ",
"            G R ` [ ' ' ) ( ( ) ) ) ) ) ' ' ' ' [ ` G r         ",
"            S R ] { ) / ( ) ) ( / / ( ( / ~ ~ ) { ` G r         ",
"        r D H ( ` ) H F ^ _ _ ~ u F ^ ^ F y y H ) ( D r         ",
"        r D / _ ^ W b C T  .o. .| I | | I I I Q ! ( R G         ",
"        r D / ^ u b V.p.p.h.|.OXXX}.h.h.}.|.|.K...` [ ` G r     ",
"        t J Q U V 8.a.l.t.i.{. X+Xm.x.x.M.N.N.}.T R ` ` H r     ",
"            =.2.q.a.l.t.%.s M 8.f.c.l.l.v.v.c.p.M w y H         ",
"            ;.4.k.l.y.2.B z j B *.p.j.f.r.r.f.D.s 9 w r         ",
"            ;.4.k.t.%.B L.E.X...V Y ~.J.#.#.J.T.x 7             ",
"            @.<.q.*.a l E.)./.!.X.X.Q.T.3 3 T.W.c 7             ",
"            a d B x g h U./.).).Q.Q.).R.L L R.W.c 7             ",
"            7 9 e q 8 i K L.P.W./._.'.(.9.P Y.L.v 7             ",
"                9 0 q j h d d A U./.).`.(.Y.C v                 ",
"                a f V C M a @ - A P.[.].@X~.x 6                 ",
"                +.1.{..XK.A.: O # N ^.#X Xj.                    ",
"                6.d.b.oX.XA.> O X > Z.H.w.0.                    ",
"            ;.6.b.b.g.,.#.< & % % & > < 1 n                     ",
"            ;.6.n.n.7.O.o O % 2 m 1 + + p k                     ",
"            ;.5.z.z.5.O.o O % m I.Z ; $ N S.                    ",
"            ;.>.u.u.>.$., = & 1 Z Y 4 5 C.G.                    ",
"                >.>.:.-.e.&.= + ; 4 B.C.                        ",
"                ;.;.;.3.F.V.* X . $ &.C.                        ",
"                            O X X O $ >                         ",
"                            X X X X X X                         "
};
