/* XPM */
static char *white1691656619[] = {
/* columns rows colors chars-per-pixel */
"100 100 2 1 ",
"  c black",
". c white",
/* pixels */
"                                                                                                    ",
" .................................................................................................. ",
" .................................................................................................. ",
" .................................................................................................. ",
" .................................................................................................. ",
" .................................................................................................. ",
" .................................................................................................. ",
" .................................................................................................. ",
" .................................................................................................. ",
" .................................................................................................. ",
" .................................................................................................. ",
" .................................................................................................. ",
" .................................................................................................. ",
" .................................................................................................. ",
" .................................................................................................. ",
" .................................................................................................. ",
" .................................................................................................. ",
" .................................................................................................. ",
" .................................................................................................. ",
" .................................................................................................. ",
" .................................................................................................. ",
" .................................................................................................. ",
" .................................................................................................. ",
" .................................................................................................. ",
" .................................................................................................. ",
" .................................................................................................. ",
" .................................................................................................. ",
" .................................................................................................. ",
" .................................................................................................. ",
" .................................................................................................. ",
" .................................................................................................. ",
" .................................................................................................. ",
" .................................................................................................. ",
" .................................................................................................. ",
" .................................................................................................. ",
" .................................................................................................. ",
" .................................................................................................. ",
" .................................................................................................. ",
" .................................................................................................. ",
" .................................................................................................. ",
" .................................................................................................. ",
" .................................................................................................. ",
" .................................................................................................. ",
" .................................................................................................. ",
" .................................................................................................. ",
" .................................................................................................. ",
" .................................................................................................. ",
" .................................................................................................. ",
" .................................................................................................. ",
" .................................................................................................. ",
" .................................................................................................. ",
" .................................................................................................. ",
" .................................................................................................. ",
" .................................................................................................. ",
" .................................................................................................. ",
" .................................................................................................. ",
" .................................................................................................. ",
" .................................................................................................. ",
" .................................................................................................. ",
" .................................................................................................. ",
" .................................................................................................. ",
" .................................................................................................. ",
" .................................................................................................. ",
" .................................................................................................. ",
" .................................................................................................. ",
" .................................................................................................. ",
" .................................................................................................. ",
" .................................................................................................. ",
" .................................................................................................. ",
" .................................................................................................. ",
" .................................................................................................. ",
" .................................................................................................. ",
" .................................................................................................. ",
" .................................................................................................. ",
" .................................................................................................. ",
" .................................................................................................. ",
" .................................................................................................. ",
" .................................................................................................. ",
" .................................................................................................. ",
" .................................................................................................. ",
" .................................................................................................. ",
" .................................................................................................. ",
" .................................................................................................. ",
" .................................................................................................. ",
" .................................................................................................. ",
" .................................................................................................. ",
" .................................................................................................. ",
" .................................................................................................. ",
" .................................................................................................. ",
" .................................................................................................. ",
" .................................................................................................. ",
" .................................................................................................. ",
" .................................................................................................. ",
" .................................................................................................. ",
" .................................................................................................. ",
" .................................................................................................. ",
" .................................................................................................. ",
" .................................................................................................. ",
" .................................................................................................. ",
"                                                                                                    "
};
